<svg id="svg" version="1.1" xmlns="http://www.w3.org/2000/svg" xmlns:xlink="http://www.w3.org/1999/xlink" width="40" height="40" viewBox="0, 0, 400,400"><g id="svgg"><path id="path0" d="M174.800 0.265 C 169.825 0.751,166.895 1.762,164.414 3.850 C 163.154 4.910,162.946 4.945,156.061 5.257 C 142.773 5.860,137.672 6.810,135.231 9.136 C 132.637 11.608,132.591 11.629,128.756 12.026 C 122.310 12.692,120.116 13.538,114.911 17.359 C 114.171 17.902,112.468 18.520,110.911 18.810 C 107.351 19.473,104.591 20.753,102.504 22.710 C 101.200 23.933,100.181 24.458,98.104 24.980 C 94.680 25.840,91.940 27.326,90.172 29.283 C 89.309 30.239,87.960 31.126,86.587 31.639 C 85.058 32.211,83.688 33.165,82.093 34.768 C 80.677 36.192,79.188 37.272,78.200 37.592 C 75.144 38.580,72.864 39.987,71.378 41.801 C 70.460 42.921,69.017 44.045,67.641 44.713 C 65.950 45.533,65.033 46.330,63.904 47.962 C 62.931 49.369,61.870 50.365,60.867 50.815 C 60.019 51.194,58.712 52.270,57.962 53.204 C 56.142 55.474,55.267 56.306,53.600 57.350 C 52.830 57.832,51.613 59.211,50.896 60.413 C 50.025 61.874,49.161 62.778,48.296 63.137 C 46.494 63.883,45.764 64.616,44.333 67.116 C 43.470 68.626,42.682 69.457,41.744 69.849 C 40.353 70.430,38.489 72.653,37.607 74.784 C 37.330 75.453,36.933 76.000,36.725 76.000 C 35.667 76.000,33.375 78.406,32.348 80.595 C 31.727 81.918,30.305 83.990,29.188 85.200 C 27.918 86.575,26.603 88.624,25.678 90.665 C 24.605 93.035,23.700 94.369,22.375 95.532 C 20.537 97.148,19.570 98.856,18.826 101.800 C 18.604 102.680,17.922 103.950,17.311 104.622 C 14.179 108.069,12.662 110.864,12.195 114.049 C 11.996 115.411,11.457 116.464,10.147 118.049 C 7.359 121.425,6.095 124.403,5.638 128.681 C 5.254 132.278,5.208 132.395,3.639 133.812 C 2.655 134.702,1.680 136.139,1.117 137.531 L 0.200 139.800 0.093 204.377 L -0.014 268.955 0.997 271.977 C 1.597 273.771,2.716 275.943,3.748 277.318 C 5.284 279.363,5.518 279.956,5.743 282.370 C 6.261 287.946,8.461 292.354,11.177 293.259 C 11.447 293.349,11.999 295.037,12.404 297.011 C 13.496 302.327,13.973 303.221,16.854 305.350 C 18.034 306.222,18.477 306.968,19.208 309.312 C 20.303 312.822,21.506 314.995,23.270 316.646 C 24.029 317.357,24.918 318.804,25.342 320.019 C 26.130 322.276,27.408 323.761,29.536 324.892 C 30.327 325.313,31.159 326.255,31.654 327.292 C 33.322 330.785,33.850 331.606,35.953 333.985 C 37.136 335.324,38.590 337.360,39.182 338.510 C 39.839 339.784,40.987 341.153,42.126 342.017 C 43.154 342.796,44.516 344.258,45.155 345.265 C 46.301 347.072,48.660 349.200,49.516 349.200 C 49.759 349.200,50.620 350.198,51.430 351.419 C 52.849 353.557,55.029 355.600,55.890 355.600 C 56.118 355.600,56.819 356.275,57.447 357.100 C 59.319 359.559,60.500 360.613,62.400 361.520 C 63.390 361.993,65.011 363.149,66.003 364.090 C 68.672 366.622,70.498 367.896,72.663 368.736 C 74.203 369.333,74.902 369.937,76.070 371.681 C 77.412 373.684,80.258 375.600,81.893 375.600 C 82.083 375.600,82.949 376.336,83.819 377.235 C 85.679 379.157,88.289 380.575,91.493 381.402 C 93.563 381.937,95.942 383.759,95.989 384.846 C 96.026 385.695,99.390 387.236,102.627 387.886 C 106.159 388.595,106.310 388.672,108.431 390.844 C 110.870 393.343,111.850 393.764,117.000 394.529 C 120.568 395.059,121.834 395.492,122.878 396.535 C 123.874 397.532,126.585 399.040,128.246 399.522 C 130.553 400.192,259.595 400.214,262.250 399.546 C 263.467 399.239,264.763 398.444,266.233 397.101 C 268.350 395.166,268.503 395.100,271.705 394.750 C 276.752 394.197,279.045 393.220,282.200 390.278 C 283.389 389.170,284.756 388.549,287.106 388.052 C 290.350 387.365,291.649 386.687,294.376 384.253 C 296.412 382.436,297.441 381.845,299.747 381.167 C 302.215 380.441,302.888 380.026,304.736 378.090 C 306.355 376.393,307.418 375.667,309.134 375.088 C 311.569 374.266,314.178 372.518,316.371 370.240 C 317.125 369.456,318.385 368.603,319.171 368.344 C 321.140 367.696,322.515 366.608,324.027 364.503 C 324.734 363.518,325.872 362.467,326.556 362.167 C 328.291 361.407,329.285 360.496,330.739 358.332 C 331.571 357.093,332.447 356.314,333.338 356.020 C 334.878 355.512,335.858 354.531,337.301 352.054 C 337.995 350.862,338.833 350.078,339.944 349.581 C 340.950 349.130,341.996 348.211,342.685 347.172 C 343.894 345.351,345.138 344.049,347.398 342.240 C 348.195 341.602,349.269 340.249,349.783 339.233 C 350.421 337.975,351.174 337.170,352.148 336.705 C 353.736 335.948,355.718 333.466,356.410 331.368 C 356.659 330.616,356.984 330.000,357.133 330.000 C 358.214 330.000,360.835 326.565,362.051 323.555 C 363.137 320.867,363.844 319.785,365.679 318.008 C 367.223 316.512,368.224 315.114,368.784 313.671 C 369.273 312.412,370.334 310.830,371.382 309.797 C 373.468 307.740,373.935 306.863,375.209 302.600 C 375.972 300.047,376.552 298.971,378.074 297.277 C 380.037 295.094,380.719 293.460,381.681 288.635 C 382.052 286.777,382.538 285.773,383.733 284.400 C 386.313 281.435,387.782 277.296,388.418 271.204 C 388.791 267.630,388.892 267.337,390.146 266.204 C 393.740 262.955,394.338 259.905,395.335 239.723 C 395.461 237.171,395.619 236.684,396.731 235.418 C 400.015 231.677,400.067 231.167,399.922 204.000 L 399.800 181.000 398.717 178.079 C 398.121 176.473,397.112 174.493,396.473 173.679 C 395.317 172.206,395.311 172.169,395.028 164.847 C 394.557 152.638,393.582 148.202,390.868 145.919 C 389.151 144.474,388.841 143.653,388.398 139.381 C 387.731 132.949,385.889 127.264,384.447 127.187 C 383.219 127.121,382.295 125.389,381.736 122.109 C 381.090 118.317,379.952 115.565,378.631 114.603 C 378.174 114.270,377.461 113.758,377.047 113.465 C 375.098 112.088,375.430 106.912,377.539 105.782 C 378.423 105.309,379.621 104.052,380.572 102.600 C 381.656 100.947,382.651 99.951,383.772 99.400 C 384.866 98.862,385.904 97.843,386.935 96.292 C 387.780 95.023,389.040 93.697,389.735 93.345 C 392.932 91.730,394.055 89.331,394.807 82.502 C 395.289 78.134,395.129 62.518,394.562 58.560 C 394.328 56.926,394.335 56.916,396.263 55.960 C 397.338 55.427,398.600 54.395,399.099 53.641 L 400.000 52.282 400.000 27.816 L 400.000 3.350 398.900 2.336 C 396.189 -0.162,398.011 -0.000,372.596 -0.000 L 349.370 -0.000 347.588 0.900 C 346.604 1.397,345.409 2.427,344.920 3.200 C 343.085 6.097,343.347 5.979,339.600 5.597 C 334.853 5.113,321.716 5.125,317.400 5.617 C 310.932 6.354,309.019 7.277,307.046 10.607 C 306.236 11.974,305.353 12.851,304.233 13.400 C 303.104 13.953,302.115 14.941,301.028 16.600 C 299.944 18.253,298.949 19.249,297.828 19.800 C 296.917 20.247,295.583 21.437,294.801 22.500 L 293.401 24.400 290.779 24.400 L 288.156 24.400 286.088 22.219 C 283.830 19.836,282.046 19.071,277.565 18.564 C 275.335 18.312,275.035 18.155,273.682 16.536 C 271.342 13.737,268.917 12.841,261.463 12.021 C 257.194 11.552,256.323 11.239,254.800 9.626 C 252.160 6.832,249.301 6.134,238.200 5.576 C 229.295 5.129,227.748 4.849,225.742 3.325 C 223.863 1.897,220.448 0.841,216.301 0.404 C 212.957 0.051,178.177 -0.065,174.800 0.265 M210.831 23.804 C 228.384 24.985,232.305 25.562,239.035 27.951 C 241.436 28.803,245.740 29.980,248.600 30.567 C 252.887 31.446,254.537 32.007,258.000 33.764 C 260.310 34.936,263.820 36.382,265.800 36.978 C 267.792 37.577,271.097 39.023,273.200 40.214 C 275.290 41.398,277.745 42.630,278.655 42.950 C 281.239 43.860,282.753 44.721,286.200 47.245 C 293.227 52.390,296.728 54.752,299.097 55.948 C 302.105 57.466,309.167 62.752,313.011 66.361 C 314.557 67.812,317.503 70.530,319.558 72.400 C 321.613 74.270,323.858 76.424,324.547 77.186 C 325.236 77.948,327.060 79.947,328.600 81.628 C 335.363 89.009,336.916 90.817,339.574 94.400 C 341.125 96.490,343.138 99.640,344.049 101.400 C 344.959 103.160,346.371 105.500,347.187 106.600 C 348.002 107.700,349.172 109.410,349.787 110.400 C 350.402 111.390,351.870 113.471,353.049 115.024 C 354.347 116.733,355.730 119.213,356.551 121.304 C 357.298 123.205,358.668 126.075,359.597 127.680 C 360.526 129.286,361.965 132.670,362.795 135.200 C 363.625 137.730,365.137 141.510,366.155 143.600 C 367.587 146.540,368.285 148.713,369.240 153.200 C 369.920 156.390,370.987 160.620,371.612 162.600 C 373.407 168.281,373.927 170.651,374.556 176.000 C 377.443 200.564,376.334 233.120,372.170 246.029 C 371.420 248.355,370.175 253.117,369.404 256.612 C 368.329 261.481,367.543 263.950,366.039 267.183 C 364.960 269.502,363.499 273.200,362.793 275.400 C 362.087 277.600,360.730 280.750,359.777 282.400 C 358.825 284.050,357.479 286.888,356.785 288.707 C 356.092 290.526,354.737 293.084,353.774 294.392 C 352.812 295.699,351.281 298.261,350.372 300.084 C 349.462 301.908,348.047 304.210,347.226 305.200 C 346.405 306.190,345.220 307.810,344.593 308.800 C 343.966 309.790,342.394 312.040,341.099 313.800 C 339.804 315.560,337.992 318.023,337.072 319.274 C 334.268 323.088,321.891 336.399,317.930 339.861 C 310.528 346.330,308.960 347.649,306.450 349.509 C 305.048 350.549,302.631 352.424,301.079 353.675 C 299.527 354.927,297.345 356.438,296.229 357.035 C 295.113 357.631,293.030 358.972,291.600 360.013 C 290.170 361.054,287.704 362.555,286.120 363.348 C 284.537 364.141,281.926 365.647,280.320 366.695 C 278.713 367.743,276.049 369.123,274.399 369.762 C 272.750 370.401,270.050 371.693,268.400 372.633 C 266.539 373.694,263.501 374.896,260.400 375.800 C 257.650 376.602,253.870 377.940,252.000 378.774 C 247.463 380.797,246.742 381.003,240.000 382.209 C 236.810 382.779,231.344 383.963,227.853 384.839 C 216.867 387.597,215.186 387.749,195.400 387.771 C 175.372 387.792,173.478 387.616,161.200 384.583 C 157.350 383.632,151.903 382.472,149.096 382.004 C 143.655 381.098,140.991 380.318,137.781 378.692 C 136.680 378.134,134.479 377.300,132.890 376.839 C 131.300 376.377,128.695 375.625,127.100 375.168 C 125.505 374.710,122.850 373.551,121.200 372.593 C 119.550 371.634,116.633 370.285,114.718 369.594 C 112.755 368.886,110.041 367.498,108.496 366.413 C 106.989 365.354,104.416 363.814,102.778 362.990 C 101.140 362.166,98.810 360.830,97.600 360.021 C 96.390 359.212,94.320 357.953,93.000 357.224 C 91.680 356.495,89.520 354.966,88.200 353.826 C 86.880 352.686,85.080 351.316,84.200 350.782 C 83.320 350.248,81.679 348.999,80.552 348.006 C 79.426 347.013,76.554 344.490,74.169 342.400 C 67.478 336.535,64.593 333.736,60.849 329.475 C 58.952 327.316,56.092 324.076,54.493 322.275 C 52.894 320.474,50.900 317.985,50.062 316.744 C 49.223 315.503,47.713 313.523,46.706 312.344 C 44.655 309.941,40.510 303.348,37.416 297.566 C 36.288 295.457,34.667 292.780,33.813 291.618 C 32.960 290.455,31.581 287.709,30.749 285.515 C 29.917 283.322,28.700 280.688,28.044 279.663 C 26.360 277.032,25.483 274.817,24.218 270.000 C 23.611 267.690,22.576 264.630,21.918 263.200 C 19.934 258.885,19.208 256.437,18.360 251.200 C 17.914 248.450,16.859 243.500,16.014 240.200 C 10.946 220.404,10.858 190.563,15.811 171.301 C 16.561 168.387,17.624 163.479,18.173 160.396 C 19.461 153.167,19.733 152.193,21.807 147.400 C 22.759 145.200,23.831 142.230,24.188 140.800 C 25.326 136.251,26.070 134.266,27.638 131.600 C 28.478 130.170,29.628 127.769,30.193 126.265 C 31.497 122.790,32.498 120.834,34.405 118.035 C 35.242 116.806,36.367 114.802,36.905 113.582 C 37.443 112.362,39.035 109.631,40.442 107.514 C 41.849 105.397,43.674 102.615,44.497 101.332 C 45.320 100.049,46.580 98.260,47.297 97.355 C 48.014 96.450,49.451 94.560,50.491 93.155 C 51.531 91.750,53.388 89.430,54.619 88.000 C 55.850 86.570,58.329 83.690,60.128 81.600 C 61.927 79.510,64.107 77.170,64.971 76.400 C 65.835 75.630,69.233 72.480,72.523 69.400 C 78.069 64.206,82.546 60.684,89.311 56.191 C 90.803 55.201,93.011 53.586,94.219 52.602 C 95.426 51.618,97.812 50.116,99.520 49.264 C 101.228 48.412,103.801 46.910,105.238 45.926 C 106.675 44.942,109.279 43.545,111.025 42.821 C 112.771 42.097,115.387 40.815,116.837 39.972 C 118.288 39.128,121.375 37.802,123.697 37.025 C 126.020 36.248,129.565 34.812,131.575 33.833 C 134.015 32.646,136.790 31.703,139.915 30.998 C 142.492 30.417,147.480 29.052,151.000 27.964 C 159.076 25.468,159.642 25.370,171.544 24.406 C 188.106 23.066,197.688 22.919,210.831 23.804 M374.719 28.100 L 374.600 30.600 372.200 30.600 L 369.800 30.600 369.681 28.100 L 369.562 25.600 372.200 25.600 L 374.838 25.600 374.719 28.100 M330.472 26.961 C 332.906 27.830,336.943 31.373,342.520 37.534 C 349.181 44.892,355.408 51.118,362.988 58.000 C 376.620 70.375,376.848 72.408,365.860 83.586 C 356.725 92.878,354.468 93.291,349.359 86.600 C 339.479 73.660,325.173 59.392,313.200 50.534 C 307.127 46.042,307.703 43.324,316.541 34.755 C 325.024 26.530,326.677 25.605,330.472 26.961 M186.808 57.183 C 182.846 58.550,182.476 59.635,182.161 70.800 C 181.823 82.788,180.867 85.332,175.532 88.430 C 173.919 89.367,171.700 90.916,170.600 91.873 C 169.500 92.829,167.790 94.199,166.800 94.917 C 163.503 97.307,162.638 101.321,164.541 105.400 C 166.407 109.398,169.332 111.085,175.987 112.002 C 182.396 112.886,187.000 116.571,189.224 122.600 C 189.711 123.920,190.796 126.170,191.634 127.600 C 192.472 129.030,193.640 131.550,194.230 133.200 C 196.336 139.094,199.870 142.022,203.713 141.058 C 205.540 140.599,210.644 136.169,211.930 133.927 C 212.600 132.757,213.810 131.170,214.619 130.400 C 215.427 129.630,216.794 128.056,217.655 126.903 C 220.350 123.294,222.769 122.482,232.312 121.981 C 239.530 121.603,241.362 121.142,246.377 118.449 C 250.355 116.312,250.225 110.236,246.099 105.496 C 244.905 104.123,243.470 102.100,242.912 101.000 C 242.353 99.900,241.014 97.720,239.936 96.155 C 236.626 91.351,236.489 85.952,239.547 80.885 C 244.639 72.450,243.765 64.559,237.592 63.236 C 233.377 62.332,224.022 63.246,219.301 65.023 C 214.358 66.883,208.734 65.377,202.340 60.479 C 197.064 56.437,192.050 55.373,186.808 57.183 M195.595 61.577 C 197.951 62.598,199.965 63.818,201.315 65.040 C 207.650 70.775,212.032 71.174,229.404 67.599 C 233.002 66.859,233.379 66.847,234.623 67.438 C 238.138 69.106,238.640 76.816,235.525 81.282 C 231.641 86.853,231.620 92.257,235.463 97.305 C 236.676 98.897,238.037 100.920,238.488 101.800 C 238.939 102.680,239.977 104.210,240.795 105.200 C 243.523 108.500,243.906 110.883,242.369 114.991 C 241.135 118.288,240.777 118.400,231.462 118.400 C 220.008 118.400,216.898 119.523,213.341 124.946 C 211.532 127.702,208.002 132.147,205.318 135.047 C 203.372 137.150,201.846 136.382,197.837 131.282 C 195.117 127.821,194.789 127.037,193.261 120.340 C 192.178 115.597,191.825 115.180,186.661 112.546 C 178.863 108.569,177.869 108.132,174.485 107.197 C 166.932 105.109,167.479 97.810,175.524 93.319 C 176.996 92.497,179.295 90.808,180.632 89.566 C 181.970 88.324,183.556 86.985,184.155 86.592 C 186.529 85.037,186.925 83.432,187.212 74.200 C 187.645 60.245,188.737 58.602,195.595 61.577 M77.400 177.744 C 75.342 178.687,71.331 183.230,70.790 185.230 C 70.465 186.434,70.294 191.736,70.256 201.800 L 70.200 216.600 69.146 218.848 C 67.614 222.114,65.547 224.179,61.918 226.067 C 59.970 227.081,58.271 228.305,57.524 229.235 C 56.854 230.068,55.112 231.387,53.653 232.165 C 46.587 235.932,39.553 244.539,40.969 247.685 C 43.386 253.055,46.113 255.104,51.832 255.849 C 56.449 256.451,57.899 256.942,60.647 258.832 C 62.816 260.325,64.706 260.949,69.044 261.607 C 73.085 262.219,74.676 263.054,76.383 265.458 C 77.142 266.526,78.333 267.940,79.031 268.600 C 80.884 270.354,81.499 271.846,82.010 275.834 C 82.855 282.433,83.745 285.059,86.250 288.344 C 87.217 289.613,87.769 290.966,88.271 293.306 C 89.081 297.075,90.020 298.631,92.146 299.728 C 96.765 302.112,103.468 300.245,105.783 295.930 C 106.411 294.758,107.693 292.968,108.631 291.951 C 109.570 290.933,110.880 289.027,111.542 287.714 C 112.205 286.401,113.783 284.129,115.048 282.665 C 116.314 281.201,117.811 279.153,118.375 278.114 C 119.690 275.692,121.230 274.684,125.912 273.184 L 129.705 271.969 141.553 272.239 C 156.605 272.583,157.004 272.501,161.177 268.196 C 164.668 264.596,164.728 264.043,162.304 257.832 C 161.017 254.531,160.149 252.967,158.756 251.432 C 157.742 250.314,156.509 248.590,156.016 247.600 C 155.523 246.610,154.073 244.720,152.794 243.400 C 151.514 242.080,149.425 239.200,148.151 237.000 C 142.968 228.052,142.912 227.648,146.266 223.239 C 147.818 221.198,148.992 217.705,149.371 214.000 C 149.811 209.688,150.428 207.625,151.821 205.799 C 161.396 193.256,147.744 183.223,133.116 192.052 C 130.918 193.379,129.758 193.778,126.716 194.255 C 124.672 194.575,121.043 195.291,118.652 195.846 C 111.969 197.398,106.535 196.022,101.200 191.427 C 99.990 190.385,98.125 189.084,97.056 188.537 C 95.987 187.990,94.277 186.635,93.256 185.526 C 92.146 184.321,90.346 182.979,88.777 182.189 C 87.334 181.462,85.909 180.572,85.609 180.211 C 83.837 178.076,79.512 176.776,77.400 177.744 M84.086 184.398 C 85.249 185.131,87.370 186.446,88.800 187.319 C 90.230 188.192,92.313 189.763,93.429 190.809 C 94.545 191.855,96.242 193.111,97.200 193.600 C 98.158 194.089,99.855 195.344,100.971 196.389 C 103.343 198.611,103.954 198.960,107.720 200.241 C 113.519 202.213,125.629 200.306,131.600 196.480 C 135.645 193.888,144.076 192.650,147.291 194.175 C 150.675 195.781,150.836 201.896,147.618 206.573 C 145.618 209.481,144.905 211.460,144.007 216.609 C 143.023 222.252,142.995 222.355,141.650 225.200 C 139.515 229.720,142.151 238.271,147.128 242.969 C 148.079 243.866,149.492 245.675,150.268 246.990 C 151.045 248.304,152.607 250.384,153.740 251.611 C 159.204 257.530,160.060 264.794,155.600 267.386 C 154.278 268.155,153.353 268.212,139.000 268.407 C 125.840 268.585,123.596 268.704,122.280 269.294 C 120.010 270.312,114.073 275.891,112.989 278.025 C 112.480 279.029,111.270 280.829,110.301 282.025 C 109.331 283.221,107.926 285.370,107.177 286.800 C 105.267 290.450,99.036 296.400,97.126 296.400 C 93.703 296.400,88.843 288.488,87.789 281.200 C 85.837 267.701,78.572 258.558,68.552 256.990 C 62.664 256.069,60.254 255.353,57.832 253.803 C 56.630 253.034,53.880 251.774,51.723 251.004 C 46.831 249.257,45.837 248.554,45.680 246.725 C 45.497 244.600,49.752 239.470,53.240 237.611 C 54.638 236.866,56.623 235.415,57.652 234.386 C 58.680 233.358,60.747 231.843,62.245 231.019 C 63.743 230.196,65.864 228.717,66.959 227.733 C 68.053 226.749,69.869 225.333,70.993 224.587 C 74.809 222.054,75.166 220.087,75.197 201.400 C 75.221 187.572,75.447 185.245,76.924 183.662 C 78.207 182.287,81.235 182.598,84.086 184.398 M259.873 223.989 C 259.128 224.643,258.007 226.308,257.381 227.689 L 256.244 230.200 256.317 240.600 C 256.399 252.212,256.310 252.755,253.950 255.025 C 253.050 255.891,251.370 257.770,250.218 259.200 C 248.664 261.129,247.400 262.196,245.319 263.336 C 243.777 264.181,241.594 265.728,240.468 266.774 C 239.342 267.820,237.381 269.289,236.110 270.038 C 232.859 271.955,232.200 273.398,232.200 278.600 C 232.200 284.850,233.127 285.913,239.743 287.246 C 242.351 287.772,243.993 288.387,245.961 289.577 C 248.647 291.199,249.302 291.455,255.638 293.356 C 261.245 295.038,261.906 295.870,263.382 303.103 C 264.572 308.935,264.813 309.581,267.006 312.800 C 268.123 314.441,269.019 316.359,269.434 318.000 C 270.608 322.646,271.651 323.748,275.358 324.256 C 279.868 324.874,284.276 322.298,286.980 317.463 C 287.760 316.068,289.284 313.915,290.366 312.677 C 291.449 311.440,292.819 309.538,293.411 308.450 C 294.049 307.278,295.243 305.933,296.344 305.148 C 297.365 304.420,299.010 303.083,300.000 302.177 C 302.596 299.802,302.298 299.852,315.400 299.616 C 328.836 299.374,329.322 299.273,330.855 296.406 C 332.763 292.837,331.178 284.848,327.902 281.525 C 326.935 280.544,325.450 278.584,324.601 277.170 C 323.753 275.757,322.396 273.790,321.585 272.800 C 317.445 267.745,317.162 258.270,320.985 252.687 C 324.161 248.047,325.547 237.504,323.372 234.532 C 320.442 230.529,305.822 231.130,300.113 235.487 C 295.366 239.111,289.769 239.154,285.200 235.602 C 284.430 235.003,282.270 233.569,280.400 232.415 C 278.530 231.260,276.190 229.474,275.200 228.445 C 273.903 227.096,272.684 226.314,270.839 225.643 C 269.430 225.131,267.468 224.282,266.479 223.756 C 263.898 222.384,261.610 222.464,259.873 223.989 M269.620 229.760 C 271.479 230.948,274.080 232.897,275.400 234.091 C 276.720 235.285,278.700 236.769,279.800 237.389 C 280.900 238.010,282.644 239.128,283.675 239.874 C 288.013 243.014,292.214 243.193,297.728 240.474 C 301.438 238.643,302.364 238.374,308.881 237.225 C 315.108 236.128,315.693 236.154,317.357 237.616 C 319.871 239.823,319.915 247.334,317.441 252.000 C 313.467 259.498,313.512 259.376,313.300 263.093 C 313.017 268.065,313.738 270.357,316.589 273.552 C 317.799 274.908,319.069 276.561,319.413 277.225 C 319.757 277.890,320.945 279.435,322.054 280.660 C 326.211 285.250,328.010 290.576,326.150 292.787 C 323.775 295.609,322.890 295.800,312.200 295.800 L 302.600 295.800 299.810 297.121 C 296.620 298.631,291.146 303.970,288.753 307.904 C 288.009 309.127,286.410 311.246,285.200 312.613 C 283.990 313.980,282.406 315.841,281.679 316.747 C 277.401 322.086,270.618 316.443,269.002 306.200 C 267.952 299.537,267.426 298.172,264.852 295.434 C 263.594 294.095,262.088 292.350,261.505 291.556 C 260.184 289.757,258.409 288.900,254.474 288.160 C 252.783 287.843,250.470 287.397,249.333 287.170 C 244.740 286.253,236.800 280.472,236.800 278.046 C 236.800 275.749,241.680 270.379,245.536 268.432 C 246.876 267.756,248.917 266.286,250.073 265.166 C 251.229 264.046,252.654 262.882,253.240 262.579 C 257.039 260.615,258.053 256.974,258.360 244.200 C 258.619 233.398,258.644 233.273,261.068 230.392 C 263.876 227.055,265.230 226.955,269.620 229.760 " stroke="none" fill="#101e1b" fill-rule="evenodd"></path><path id="path1" d="M191.971 67.655 C 191.706 68.150,191.375 71.982,191.186 76.755 C 191.007 81.290,190.633 85.720,190.356 86.600 C 189.691 88.714,184.032 94.279,180.377 96.414 C 174.188 100.028,174.577 102.488,181.581 104.017 C 185.782 104.934,186.750 105.367,190.394 107.956 C 194.619 110.960,195.698 112.277,197.175 116.235 C 198.656 120.205,202.053 126.181,203.046 126.562 C 204.426 127.092,207.658 124.250,210.109 120.353 C 211.281 118.490,212.295 117.593,216.061 115.091 C 221.346 111.579,222.088 111.342,228.977 110.966 C 236.935 110.531,237.757 108.615,232.509 102.733 C 227.520 97.143,226.720 87.777,230.315 77.056 C 231.969 72.122,229.681 71.446,222.509 74.750 C 215.637 77.915,210.355 77.804,205.779 74.398 C 204.668 73.571,202.840 72.428,201.716 71.859 C 200.593 71.290,198.639 69.919,197.375 68.812 C 194.746 66.512,192.805 66.096,191.971 67.655 M81.000 191.341 C 80.230 191.917,80.200 192.406,80.200 204.270 L 80.200 216.600 79.067 220.400 C 77.459 225.795,72.682 231.425,67.487 234.049 C 66.559 234.518,64.720 235.843,63.400 236.995 C 62.080 238.146,60.010 239.682,58.800 240.408 C 52.325 244.292,52.331 246.052,58.827 247.780 C 60.902 248.332,64.231 249.596,66.224 250.588 C 68.427 251.685,71.705 252.864,74.587 253.597 C 83.726 255.921,88.569 261.450,90.753 272.054 C 91.961 277.923,95.896 287.613,97.269 288.101 C 98.639 288.589,102.388 285.170,104.025 281.940 C 104.509 280.983,105.917 278.828,107.153 277.150 C 108.389 275.473,110.030 273.070,110.800 271.810 C 111.842 270.105,113.149 268.809,115.912 266.739 C 123.322 261.189,123.236 261.211,137.713 261.205 C 149.430 261.200,151.600 260.912,151.600 259.363 C 151.600 258.634,146.805 251.348,144.384 248.400 C 143.572 247.410,142.223 245.520,141.388 244.200 C 140.553 242.880,139.077 240.783,138.108 239.541 C 134.084 234.381,134.043 225.414,138.007 217.633 C 139.738 214.237,140.371 212.102,141.411 206.162 C 142.539 199.716,142.018 199.073,137.240 201.015 C 135.866 201.573,133.000 202.386,130.871 202.822 C 125.822 203.855,124.916 204.161,120.429 206.345 C 114.471 209.247,109.603 209.012,105.200 205.608 C 104.430 205.013,102.654 203.922,101.254 203.183 C 99.854 202.444,97.874 201.096,96.854 200.187 C 95.834 199.279,93.650 197.606,92.000 196.469 C 90.350 195.333,88.010 193.678,86.800 192.792 C 84.292 190.956,82.211 190.435,81.000 191.341 M265.536 236.700 C 265.278 237.338,265.038 241.215,264.964 245.936 C 264.781 257.574,264.067 259.530,257.762 265.687 C 254.067 269.295,252.641 270.397,249.470 272.096 C 244.603 274.702,243.263 277.560,246.300 278.856 C 247.345 279.302,250.270 280.626,252.800 281.798 C 255.330 282.969,258.390 284.239,259.600 284.618 C 266.699 286.845,270.447 291.102,272.329 299.077 C 273.660 304.714,276.839 310.800,278.453 310.800 C 279.351 310.800,283.359 306.444,285.115 303.558 C 287.451 299.718,293.519 293.368,295.828 292.346 C 298.080 291.350,303.586 290.815,311.674 290.807 C 320.728 290.798,321.885 290.248,319.714 286.985 C 319.101 286.064,317.880 284.188,317.000 282.818 C 316.120 281.447,314.467 279.277,313.328 277.996 C 312.188 276.715,310.973 275.121,310.628 274.453 C 307.672 268.738,308.546 255.709,312.452 247.245 C 315.289 241.095,313.275 239.942,306.043 243.578 C 298.165 247.539,285.739 248.037,280.904 244.586 C 279.857 243.838,277.740 242.373,276.200 241.330 C 274.660 240.287,272.329 238.571,271.020 237.517 C 268.116 235.178,266.262 234.902,265.536 236.700 " stroke="none" fill="#fcec4c" fill-rule="evenodd"></path><path id="path2" d="M326.300 26.800 C 323.288 27.706,311.741 38.723,310.141 42.216 C 308.442 45.929,308.990 47.420,313.200 50.534 C 325.173 59.392,339.479 73.660,349.359 86.600 C 354.468 93.291,356.725 92.878,365.860 83.586 C 376.848 72.408,376.620 70.375,362.988 58.000 C 355.408 51.118,349.181 44.892,342.520 37.534 C 333.959 28.076,330.239 25.614,326.300 26.800 M189.635 61.162 C 187.875 63.047,187.495 65.092,187.212 74.200 C 186.925 83.432,186.529 85.037,184.155 86.592 C 183.556 86.985,181.970 88.324,180.632 89.566 C 179.295 90.808,176.996 92.497,175.524 93.319 C 167.479 97.810,166.932 105.109,174.485 107.197 C 177.869 108.132,178.863 108.569,186.661 112.546 C 191.825 115.180,192.178 115.597,193.261 120.340 C 194.789 127.037,195.117 127.821,197.837 131.282 C 201.846 136.382,203.372 137.150,205.318 135.047 C 208.002 132.147,211.532 127.702,213.341 124.946 C 216.898 119.523,220.008 118.400,231.462 118.400 C 240.777 118.400,241.135 118.288,242.369 114.991 C 243.906 110.883,243.523 108.500,240.795 105.200 C 239.977 104.210,238.939 102.680,238.488 101.800 C 238.037 100.920,236.676 98.897,235.463 97.305 C 231.620 92.257,231.641 86.853,235.525 81.282 C 238.640 76.816,238.138 69.106,234.623 67.438 C 233.379 66.847,233.002 66.859,229.404 67.599 C 212.032 71.174,207.650 70.775,201.315 65.040 C 199.343 63.256,192.901 60.000,191.340 60.000 C 191.000 60.000,190.232 60.523,189.635 61.162 M197.375 68.812 C 198.639 69.919,200.593 71.290,201.716 71.859 C 202.840 72.428,204.668 73.571,205.779 74.398 C 210.355 77.804,215.637 77.915,222.509 74.750 C 229.681 71.446,231.969 72.122,230.315 77.056 C 226.720 87.777,227.520 97.143,232.509 102.733 C 237.757 108.615,236.935 110.531,228.977 110.966 C 222.088 111.342,221.346 111.579,216.061 115.091 C 212.295 117.593,211.281 118.490,210.109 120.353 C 207.658 124.250,204.426 127.092,203.046 126.562 C 202.053 126.181,198.656 120.205,197.175 116.235 C 195.698 112.277,194.619 110.960,190.394 107.956 C 186.750 105.367,185.782 104.934,181.581 104.017 C 174.577 102.488,174.188 100.028,180.377 96.414 C 184.032 94.279,189.691 88.714,190.356 86.600 C 190.633 85.720,191.007 81.290,191.186 76.755 C 191.628 65.605,192.472 64.522,197.375 68.812 M76.924 183.662 C 75.447 185.245,75.221 187.572,75.197 201.400 C 75.166 220.087,74.809 222.054,70.993 224.587 C 69.869 225.333,68.053 226.749,66.959 227.733 C 65.864 228.717,63.743 230.196,62.245 231.019 C 60.747 231.843,58.680 233.358,57.652 234.386 C 56.623 235.415,54.638 236.866,53.240 237.611 C 49.752 239.470,45.497 244.600,45.680 246.725 C 45.837 248.554,46.831 249.257,51.723 251.004 C 53.880 251.774,56.630 253.034,57.832 253.803 C 60.254 255.353,62.664 256.069,68.552 256.990 C 78.572 258.558,85.837 267.701,87.789 281.200 C 88.843 288.488,93.703 296.400,97.126 296.400 C 99.036 296.400,105.267 290.450,107.177 286.800 C 107.926 285.370,109.331 283.221,110.301 282.025 C 111.270 280.829,112.480 279.029,112.989 278.025 C 114.073 275.891,120.010 270.312,122.280 269.294 C 123.596 268.704,125.840 268.585,139.000 268.407 C 153.353 268.212,154.278 268.155,155.600 267.386 C 160.060 264.794,159.204 257.530,153.740 251.611 C 152.607 250.384,151.045 248.304,150.268 246.990 C 149.492 245.675,148.079 243.866,147.128 242.969 C 142.151 238.271,139.515 229.720,141.650 225.200 C 142.995 222.355,143.023 222.252,144.007 216.609 C 144.905 211.460,145.618 209.481,147.618 206.573 C 150.836 201.896,150.675 195.781,147.291 194.175 C 144.076 192.650,135.645 193.888,131.600 196.480 C 125.629 200.306,113.519 202.213,107.720 200.241 C 103.954 198.960,103.343 198.611,100.971 196.389 C 99.855 195.344,98.158 194.089,97.200 193.600 C 96.242 193.111,94.545 191.855,93.429 190.809 C 92.313 189.763,90.230 188.192,88.800 187.319 C 87.370 186.446,85.249 185.131,84.086 184.398 C 81.235 182.598,78.207 182.287,76.924 183.662 M86.800 192.792 C 88.010 193.678,90.350 195.333,92.000 196.469 C 93.650 197.606,95.834 199.279,96.854 200.187 C 97.874 201.096,99.854 202.444,101.254 203.183 C 102.654 203.922,104.430 205.013,105.200 205.608 C 109.603 209.012,114.471 209.247,120.429 206.345 C 124.916 204.161,125.822 203.855,130.871 202.822 C 133.000 202.386,135.866 201.573,137.240 201.015 C 142.018 199.073,142.539 199.716,141.411 206.162 C 140.371 212.102,139.738 214.237,138.007 217.633 C 134.043 225.414,134.084 234.381,138.108 239.541 C 139.077 240.783,140.553 242.880,141.388 244.200 C 142.223 245.520,143.572 247.410,144.384 248.400 C 146.805 251.348,151.600 258.634,151.600 259.363 C 151.600 260.912,149.430 261.200,137.713 261.205 C 123.236 261.211,123.322 261.189,115.912 266.739 C 113.149 268.809,111.842 270.105,110.800 271.810 C 110.030 273.070,108.389 275.473,107.153 277.150 C 105.917 278.828,104.509 280.983,104.025 281.940 C 102.388 285.170,98.639 288.589,97.269 288.101 C 95.896 287.613,91.961 277.923,90.753 272.054 C 89.321 265.105,88.859 264.148,84.790 259.715 C 80.751 255.315,80.313 255.053,74.587 253.597 C 71.705 252.864,68.427 251.685,66.224 250.588 C 64.231 249.596,60.902 248.332,58.827 247.780 C 52.331 246.052,52.325 244.292,58.800 240.408 C 60.010 239.682,62.080 238.146,63.400 236.995 C 64.720 235.843,66.559 234.518,67.487 234.049 C 72.682 231.425,77.459 225.795,79.067 220.400 L 80.200 216.600 80.200 204.270 C 80.200 192.406,80.230 191.917,81.000 191.341 C 82.211 190.435,84.292 190.956,86.800 192.792 M263.383 228.345 C 262.000 229.188,260.295 231.104,259.285 232.948 C 258.711 233.997,258.561 235.821,258.360 244.200 C 258.053 256.974,257.039 260.615,253.240 262.579 C 252.654 262.882,251.229 264.046,250.073 265.166 C 248.917 266.286,246.876 267.756,245.536 268.432 C 241.680 270.379,236.800 275.749,236.800 278.046 C 236.800 280.472,244.740 286.253,249.333 287.170 C 250.470 287.397,252.783 287.843,254.474 288.160 C 258.409 288.900,260.184 289.757,261.505 291.556 C 262.088 292.350,263.594 294.095,264.852 295.434 C 267.426 298.172,267.952 299.537,269.002 306.200 C 270.618 316.443,277.401 322.086,281.679 316.747 C 282.406 315.841,283.990 313.980,285.200 312.613 C 286.410 311.246,288.009 309.127,288.753 307.904 C 291.146 303.970,296.620 298.631,299.810 297.121 L 302.600 295.800 312.200 295.800 C 322.890 295.800,323.775 295.609,326.150 292.787 C 328.010 290.576,326.211 285.250,322.054 280.660 C 320.945 279.435,319.757 277.890,319.413 277.225 C 319.069 276.561,317.799 274.908,316.589 273.552 C 313.738 270.357,313.017 268.065,313.300 263.093 C 313.512 259.376,313.467 259.498,317.441 252.000 C 319.915 247.334,319.871 239.823,317.357 237.616 C 315.693 236.154,315.108 236.128,308.881 237.225 C 302.364 238.374,301.438 238.643,297.728 240.474 C 292.214 243.193,288.013 243.014,283.675 239.874 C 282.644 239.128,280.900 238.010,279.800 237.389 C 278.700 236.769,276.720 235.285,275.400 234.091 C 269.778 229.006,265.586 227.002,263.383 228.345 M271.020 237.517 C 272.329 238.571,274.660 240.287,276.200 241.330 C 277.740 242.373,279.857 243.838,280.904 244.586 C 285.739 248.037,298.165 247.539,306.043 243.578 C 313.275 239.942,315.289 241.095,312.452 247.245 C 308.546 255.709,307.672 268.738,310.628 274.453 C 310.973 275.121,312.188 276.715,313.328 277.996 C 314.467 279.277,316.120 281.447,317.000 282.818 C 317.880 284.188,319.101 286.064,319.714 286.985 C 321.885 290.248,320.728 290.798,311.674 290.807 C 303.586 290.815,298.080 291.350,295.828 292.346 C 293.519 293.368,287.451 299.718,285.115 303.558 C 283.359 306.444,279.351 310.800,278.453 310.800 C 276.839 310.800,273.660 304.714,272.329 299.077 C 270.447 291.102,266.699 286.845,259.600 284.618 C 258.390 284.239,255.330 282.969,252.800 281.798 C 250.270 280.626,247.345 279.302,246.300 278.856 C 243.263 277.560,244.603 274.702,249.470 272.096 C 252.641 270.397,254.067 269.295,257.762 265.687 C 264.067 259.530,264.781 257.574,264.964 245.936 C 265.144 234.485,265.918 233.408,271.020 237.517 " stroke="none" fill="#d1ba2a" fill-rule="evenodd"></path><path id="path3" d="M178.200 27.578 C 171.193 27.946,169.473 28.257,161.315 30.638 C 157.968 31.614,152.838 32.780,149.915 33.228 C 142.293 34.396,141.419 34.639,137.829 36.594 C 135.822 37.687,132.859 38.825,130.000 39.600 C 126.945 40.429,124.057 41.561,121.400 42.970 C 119.200 44.138,116.050 45.593,114.400 46.204 C 112.750 46.815,110.230 48.168,108.800 49.210 C 107.370 50.253,105.041 51.686,103.625 52.396 C 102.208 53.107,99.688 54.627,98.025 55.776 C 96.361 56.924,94.111 58.372,93.025 58.992 C 91.939 59.613,90.319 60.789,89.425 61.604 C 88.531 62.420,86.990 63.592,86.000 64.210 C 82.127 66.626,68.040 79.826,62.319 86.400 C 59.925 89.150,57.010 92.482,55.840 93.804 C 54.670 95.126,53.063 97.223,52.269 98.465 C 51.475 99.707,50.107 101.552,49.229 102.566 C 48.352 103.580,46.967 105.622,46.152 107.105 C 45.337 108.587,43.861 110.951,42.873 112.358 C 41.886 113.764,40.484 116.322,39.759 118.042 C 39.033 119.762,37.542 122.486,36.445 124.097 C 35.288 125.794,34.030 128.309,33.452 130.079 C 32.904 131.759,31.449 135.083,30.219 137.466 C 28.470 140.855,27.769 142.782,27.004 146.303 C 26.466 148.779,25.209 152.871,24.210 155.396 C 22.023 160.925,21.820 161.846,20.805 170.859 C 20.367 174.742,19.560 180.682,19.012 184.059 C 16.375 200.303,16.322 210.947,18.807 225.200 C 19.248 227.730,20.058 233.580,20.606 238.200 C 21.884 248.983,22.130 250.136,24.248 255.298 C 25.218 257.662,26.536 261.920,27.176 264.761 C 28.384 270.117,28.588 270.646,30.947 274.549 C 31.728 275.840,32.923 278.569,33.604 280.612 C 34.323 282.771,35.518 285.292,36.456 286.631 C 37.344 287.899,38.967 290.750,40.063 292.967 C 41.160 295.184,42.466 297.539,42.967 298.199 C 43.468 298.860,44.618 300.752,45.523 302.406 C 46.428 304.059,48.014 306.399,49.048 307.606 C 50.082 308.812,51.553 310.790,52.318 312.000 C 53.083 313.210,54.542 315.190,55.561 316.400 C 56.580 317.610,57.942 319.320,58.587 320.200 C 60.904 323.358,76.472 339.005,79.688 341.408 C 80.946 342.348,82.926 343.919,84.088 344.900 C 85.249 345.881,87.190 347.311,88.400 348.078 C 89.610 348.845,91.590 350.326,92.800 351.370 C 94.010 352.414,95.900 353.724,97.000 354.280 C 98.100 354.837,100.076 356.021,101.391 356.911 C 102.705 357.801,105.675 359.490,107.991 360.664 C 110.306 361.838,113.051 363.413,114.092 364.164 C 115.132 364.914,117.665 366.089,119.719 366.773 C 121.774 367.458,124.822 368.831,126.492 369.825 C 128.962 371.295,130.676 371.920,135.665 373.171 C 139.039 374.018,143.330 375.345,145.200 376.120 C 149.990 378.108,152.383 378.639,160.800 379.581 C 164.870 380.037,170.900 380.847,174.200 381.380 C 190.526 384.022,200.640 384.023,216.200 381.386 C 219.280 380.865,225.120 380.065,229.178 379.609 C 238.067 378.612,240.451 378.088,244.785 376.182 C 246.613 375.379,249.929 374.285,252.154 373.752 C 258.659 372.193,260.052 371.703,262.800 370.006 C 264.230 369.123,267.066 367.845,269.101 367.167 C 271.544 366.353,273.630 365.324,275.233 364.144 C 276.570 363.160,279.495 361.462,281.732 360.370 C 297.209 352.820,323.572 328.524,334.435 311.800 C 335.292 310.480,336.613 308.585,337.371 307.588 C 338.230 306.457,339.040 304.689,339.524 302.885 C 340.111 300.697,340.579 299.779,341.450 299.108 C 343.705 297.370,344.751 295.945,345.816 293.159 C 346.409 291.605,347.786 289.016,348.874 287.405 C 350.369 285.192,351.175 283.390,352.173 280.032 C 352.925 277.501,354.117 274.578,354.942 273.241 C 356.345 270.968,356.894 269.239,358.953 260.600 C 359.478 258.400,360.545 254.971,361.326 252.980 C 363.440 247.585,364.445 240.716,366.024 220.879 C 367.698 199.834,365.133 166.675,361.061 156.742 C 360.308 154.904,359.379 151.960,358.997 150.200 C 357.401 142.837,356.663 140.471,355.012 137.417 C 354.055 135.648,352.697 132.310,351.993 130.000 C 351.100 127.068,350.205 125.076,349.027 123.400 C 348.098 122.080,346.798 119.829,346.136 118.397 C 345.474 116.965,343.928 114.301,342.699 112.476 C 341.471 110.651,340.156 108.298,339.778 107.247 C 339.400 106.195,338.578 104.630,337.952 103.768 C 337.325 102.905,335.647 100.490,334.223 98.400 C 332.798 96.310,330.658 93.489,329.466 92.131 C 328.274 90.773,326.905 89.110,326.424 88.434 C 319.948 79.338,301.364 62.150,293.926 58.377 C 292.236 57.519,289.896 56.039,288.726 55.087 C 286.425 53.214,281.564 49.773,278.309 47.712 C 277.190 47.003,275.158 46.052,273.794 45.598 C 272.430 45.144,270.475 44.241,269.451 43.592 C 266.283 41.583,264.741 40.928,260.600 39.835 C 258.300 39.229,254.730 37.851,252.200 36.596 C 248.003 34.512,247.469 34.357,240.600 33.229 C 236.460 32.549,231.105 31.349,228.000 30.405 C 218.810 27.614,198.992 26.489,178.200 27.578 M193.827 49.790 C 196.195 50.499,203.629 54.791,207.085 57.443 C 210.326 59.932,210.403 59.970,213.139 60.452 C 216.328 61.014,221.926 60.038,225.980 58.213 C 233.151 54.986,237.613 55.511,243.125 60.229 C 247.507 63.979,247.905 73.267,244.212 85.570 C 242.693 90.630,243.703 93.850,248.735 99.994 C 253.535 105.854,255.113 113.938,252.464 119.089 C 249.363 125.117,245.739 126.625,233.508 126.975 C 223.563 127.259,223.209 127.380,220.187 131.542 C 212.754 141.778,210.355 144.093,205.808 145.415 C 196.442 148.138,188.450 140.406,185.586 125.852 C 185.003 122.892,183.495 121.244,180.200 119.966 C 178.880 119.454,176.810 118.454,175.600 117.744 C 174.390 117.034,172.140 116.069,170.600 115.600 C 163.447 113.422,162.635 112.846,160.368 108.336 C 156.187 100.020,159.101 93.220,169.866 86.176 C 176.468 81.856,177.990 78.981,178.006 70.800 C 178.028 59.158,179.500 55.001,184.808 51.595 C 188.554 49.191,190.515 48.799,193.827 49.790 M85.102 173.808 C 86.309 174.166,88.103 175.193,89.475 176.311 C 90.754 177.353,93.060 179.074,94.600 180.135 C 96.140 181.196,98.518 182.905,99.885 183.932 C 102.509 185.904,106.371 188.729,108.726 190.400 C 111.898 192.650,119.912 191.851,126.279 188.651 C 129.982 186.790,132.018 186.219,140.775 184.591 C 147.958 183.256,154.486 184.924,157.004 188.738 C 160.118 193.456,159.334 204.626,155.338 212.480 C 150.227 222.523,150.152 232.130,155.139 237.912 C 156.225 239.170,157.925 241.463,158.916 243.007 C 159.908 244.552,161.440 246.687,162.321 247.754 C 163.202 248.820,164.421 250.616,165.030 251.746 C 165.639 252.876,166.714 254.520,167.419 255.400 C 172.004 261.124,171.577 266.465,166.113 271.755 C 160.581 277.110,160.260 277.181,141.550 277.192 C 124.787 277.202,124.791 277.201,120.934 283.600 C 119.939 285.250,118.527 287.230,117.797 288.000 C 117.066 288.770,115.598 290.681,114.534 292.248 C 108.370 301.322,105.167 304.602,100.324 306.800 C 91.876 310.634,82.323 300.446,79.008 284.069 C 77.857 278.384,77.365 277.146,74.253 272.119 C 70.919 266.731,69.893 266.089,62.514 264.768 C 57.450 263.861,56.319 263.510,52.000 261.500 C 50.350 260.733,48.010 259.786,46.800 259.397 C 37.339 256.353,33.000 247.532,37.128 239.729 C 38.115 237.863,45.482 231.078,48.341 229.403 C 49.699 228.607,51.932 227.098,53.305 226.049 C 54.677 225.000,56.700 223.617,57.800 222.974 C 60.875 221.179,65.511 216.585,65.991 214.855 C 66.226 214.010,66.398 207.782,66.401 200.000 C 66.408 182.460,67.021 179.056,70.725 176.000 C 73.959 173.331,80.262 172.371,85.102 173.808 M268.736 218.167 C 271.138 219.409,279.390 224.967,281.966 227.078 C 286.844 231.075,291.036 232.225,295.658 230.836 C 297.056 230.415,300.000 229.677,302.200 229.196 C 304.400 228.714,307.820 227.663,309.800 226.860 C 321.295 222.198,332.112 232.174,328.630 244.227 C 328.317 245.312,327.671 248.180,327.196 250.600 C 326.683 253.215,325.674 256.541,324.710 258.800 C 322.639 263.649,322.592 265.184,324.433 267.816 C 325.185 268.891,326.253 270.527,326.806 271.452 C 327.360 272.377,328.861 274.363,330.143 275.867 C 332.421 278.538,336.253 284.606,338.186 288.600 C 339.319 290.943,339.943 296.715,339.254 298.484 C 338.838 299.552,338.379 299.827,330.000 304.033 C 325.890 306.096,323.446 306.471,314.403 306.426 C 303.576 306.372,299.584 307.693,296.880 312.225 C 295.815 314.010,294.143 316.437,289.809 322.489 C 287.732 325.390,287.383 325.681,284.098 327.261 C 272.978 332.608,263.787 325.978,260.391 310.160 C 259.154 304.397,258.695 303.257,256.345 300.106 C 254.351 297.432,253.397 296.964,247.469 295.752 C 241.522 294.536,231.276 289.829,229.511 287.503 C 226.194 283.133,224.761 278.849,225.758 276.283 C 227.941 270.663,232.136 266.077,239.800 260.930 C 243.084 258.725,247.405 254.708,248.331 253.000 C 248.880 251.985,248.986 250.195,249.017 241.400 C 249.058 229.468,249.361 227.724,251.899 224.765 C 252.732 223.794,254.104 222.137,254.948 221.082 C 257.985 217.286,264.407 215.929,268.736 218.167 " stroke="none" fill="#04b4f4" fill-rule="evenodd"></path><path id="path4" d="M184.000 23.481 C 167.431 24.292,159.308 25.396,151.000 27.964 C 147.480 29.052,142.492 30.417,139.915 30.998 C 136.790 31.703,134.015 32.646,131.575 33.833 C 129.565 34.812,126.020 36.248,123.697 37.025 C 121.375 37.802,118.288 39.128,116.837 39.972 C 115.387 40.815,112.771 42.097,111.025 42.821 C 109.279 43.545,106.675 44.942,105.238 45.926 C 103.801 46.910,101.228 48.412,99.520 49.264 C 97.812 50.116,95.426 51.618,94.219 52.602 C 93.011 53.586,90.803 55.201,89.311 56.191 C 82.546 60.684,78.069 64.206,72.523 69.400 C 69.233 72.480,65.835 75.630,64.971 76.400 C 64.107 77.170,61.927 79.510,60.128 81.600 C 58.329 83.690,55.850 86.570,54.619 88.000 C 53.388 89.430,51.531 91.750,50.491 93.155 C 49.451 94.560,48.014 96.450,47.297 97.355 C 46.580 98.260,45.320 100.049,44.497 101.332 C 43.674 102.615,41.849 105.397,40.442 107.514 C 39.035 109.631,37.443 112.362,36.905 113.582 C 36.367 114.802,35.242 116.806,34.405 118.035 C 32.498 120.834,31.497 122.790,30.193 126.265 C 29.628 127.769,28.478 130.170,27.638 131.600 C 26.070 134.266,25.326 136.251,24.188 140.800 C 23.831 142.230,22.759 145.200,21.807 147.400 C 19.733 152.193,19.461 153.167,18.173 160.396 C 17.624 163.479,16.561 168.387,15.811 171.301 C 10.858 190.563,10.946 220.404,16.014 240.200 C 16.859 243.500,17.914 248.450,18.360 251.200 C 19.208 256.437,19.934 258.885,21.918 263.200 C 22.576 264.630,23.611 267.690,24.218 270.000 C 25.483 274.817,26.360 277.032,28.044 279.663 C 28.700 280.688,29.917 283.322,30.749 285.515 C 31.581 287.709,32.960 290.455,33.813 291.618 C 34.667 292.780,36.288 295.457,37.416 297.566 C 40.510 303.348,44.655 309.941,46.706 312.344 C 47.713 313.523,49.223 315.503,50.062 316.744 C 50.900 317.985,52.894 320.474,54.493 322.275 C 56.092 324.076,58.952 327.316,60.849 329.475 C 64.593 333.736,67.478 336.535,74.169 342.400 C 76.554 344.490,79.426 347.013,80.552 348.006 C 81.679 348.999,83.320 350.248,84.200 350.782 C 85.080 351.316,86.880 352.686,88.200 353.826 C 89.520 354.966,91.680 356.495,93.000 357.224 C 94.320 357.953,96.390 359.212,97.600 360.021 C 98.810 360.830,101.140 362.166,102.778 362.990 C 104.416 363.814,106.989 365.354,108.496 366.413 C 110.041 367.498,112.755 368.886,114.718 369.594 C 116.633 370.285,119.550 371.634,121.200 372.593 C 122.850 373.551,125.505 374.710,127.100 375.168 C 128.695 375.625,131.300 376.377,132.890 376.839 C 134.479 377.300,136.680 378.134,137.781 378.692 C 140.991 380.318,143.655 381.098,149.096 382.004 C 151.903 382.472,157.350 383.632,161.200 384.583 C 173.478 387.616,175.372 387.792,195.400 387.771 C 215.186 387.749,216.867 387.597,227.853 384.839 C 231.344 383.963,236.810 382.779,240.000 382.209 C 246.742 381.003,247.463 380.797,252.000 378.774 C 253.870 377.940,257.650 376.602,260.400 375.800 C 263.501 374.896,266.539 373.694,268.400 372.633 C 270.050 371.693,272.750 370.401,274.399 369.762 C 276.049 369.123,278.713 367.743,280.320 366.695 C 281.926 365.647,284.537 364.141,286.120 363.348 C 287.704 362.555,290.170 361.054,291.600 360.013 C 293.030 358.972,295.113 357.631,296.229 357.035 C 297.345 356.438,299.527 354.927,301.079 353.675 C 302.631 352.424,305.048 350.549,306.450 349.509 C 308.960 347.649,310.528 346.330,317.930 339.861 C 321.891 336.399,334.268 323.088,337.072 319.274 C 337.992 318.023,339.804 315.560,341.099 313.800 C 342.394 312.040,343.966 309.790,344.593 308.800 C 345.220 307.810,346.405 306.190,347.226 305.200 C 348.047 304.210,349.462 301.908,350.372 300.084 C 351.281 298.261,352.812 295.699,353.774 294.392 C 354.737 293.084,356.092 290.526,356.785 288.707 C 357.479 286.888,358.825 284.050,359.777 282.400 C 360.730 280.750,362.087 277.600,362.793 275.400 C 363.499 273.200,364.960 269.502,366.039 267.183 C 367.543 263.950,368.329 261.481,369.404 256.612 C 370.175 253.117,371.420 248.355,372.170 246.029 C 376.334 233.120,377.443 200.564,374.556 176.000 C 373.927 170.651,373.407 168.281,371.612 162.600 C 370.987 160.620,369.920 156.390,369.240 153.200 C 368.285 148.713,367.587 146.540,366.155 143.600 C 365.137 141.510,363.625 137.730,362.795 135.200 C 361.965 132.670,360.526 129.286,359.597 127.680 C 358.668 126.075,357.298 123.205,356.551 121.304 C 355.730 119.213,354.347 116.733,353.049 115.024 C 351.870 113.471,350.402 111.390,349.787 110.400 C 349.172 109.410,348.002 107.700,347.187 106.600 C 346.371 105.500,344.959 103.160,344.049 101.400 C 343.138 99.640,341.125 96.490,339.574 94.400 C 336.916 90.817,335.363 89.009,328.600 81.628 C 327.060 79.947,325.236 77.948,324.547 77.186 C 323.858 76.424,321.613 74.270,319.558 72.400 C 317.503 70.530,314.557 67.812,313.011 66.361 C 309.167 62.752,302.105 57.466,299.097 55.948 C 296.728 54.752,293.227 52.390,286.200 47.245 C 282.753 44.721,281.239 43.860,278.655 42.950 C 277.745 42.630,275.290 41.398,273.200 40.214 C 271.097 39.023,267.792 37.577,265.800 36.978 C 263.820 36.382,260.310 34.936,258.000 33.764 C 254.537 32.007,252.887 31.446,248.600 30.567 C 245.740 29.980,241.436 28.803,239.035 27.951 C 232.305 25.562,228.384 24.985,210.831 23.804 C 202.818 23.264,191.269 23.126,184.000 23.481 M218.800 28.173 C 220.890 28.498,225.030 29.503,228.000 30.405 C 231.105 31.349,236.460 32.549,240.600 33.229 C 247.469 34.357,248.003 34.512,252.200 36.596 C 254.730 37.851,258.300 39.229,260.600 39.835 C 264.741 40.928,266.283 41.583,269.451 43.592 C 270.475 44.241,272.430 45.144,273.794 45.598 C 275.158 46.052,277.190 47.003,278.309 47.712 C 281.564 49.773,286.425 53.214,288.726 55.087 C 289.896 56.039,292.236 57.519,293.926 58.377 C 301.364 62.150,319.948 79.338,326.424 88.434 C 326.905 89.110,328.274 90.773,329.466 92.131 C 330.658 93.489,332.798 96.310,334.223 98.400 C 335.647 100.490,337.325 102.905,337.952 103.768 C 338.578 104.630,339.400 106.195,339.778 107.247 C 340.156 108.298,341.471 110.651,342.699 112.476 C 343.928 114.301,345.474 116.965,346.136 118.397 C 346.798 119.829,348.098 122.080,349.027 123.400 C 350.205 125.076,351.100 127.068,351.993 130.000 C 352.697 132.310,354.055 135.648,355.012 137.417 C 356.663 140.471,357.401 142.837,358.997 150.200 C 359.379 151.960,360.308 154.904,361.061 156.742 C 364.134 164.240,366.666 187.043,366.539 206.079 C 366.413 225.059,364.094 245.915,361.326 252.980 C 360.545 254.971,359.478 258.400,358.953 260.600 C 356.894 269.239,356.345 270.968,354.942 273.241 C 354.117 274.578,352.925 277.501,352.173 280.032 C 351.175 283.390,350.369 285.192,348.874 287.405 C 347.786 289.016,346.409 291.605,345.816 293.159 C 344.751 295.945,343.705 297.370,341.450 299.108 C 340.579 299.779,340.111 300.697,339.524 302.885 C 339.040 304.689,338.230 306.457,337.371 307.588 C 336.613 308.585,335.292 310.480,334.435 311.800 C 323.572 328.524,297.209 352.820,281.732 360.370 C 279.495 361.462,276.570 363.160,275.233 364.144 C 273.630 365.324,271.544 366.353,269.101 367.167 C 267.066 367.845,264.230 369.123,262.800 370.006 C 260.052 371.703,258.659 372.193,252.154 373.752 C 249.929 374.285,246.613 375.379,244.785 376.182 C 240.451 378.088,238.067 378.612,229.178 379.609 C 225.120 380.065,219.280 380.865,216.200 381.386 C 200.640 384.023,190.526 384.022,174.200 381.380 C 170.900 380.847,164.870 380.037,160.800 379.581 C 152.383 378.639,149.990 378.108,145.200 376.120 C 143.330 375.345,139.039 374.018,135.665 373.171 C 130.676 371.920,128.962 371.295,126.492 369.825 C 124.822 368.831,121.774 367.458,119.719 366.773 C 117.665 366.089,115.132 364.914,114.092 364.164 C 113.051 363.413,110.306 361.838,107.991 360.664 C 105.675 359.490,102.705 357.801,101.391 356.911 C 100.076 356.021,98.100 354.837,97.000 354.280 C 95.900 353.724,94.010 352.414,92.800 351.370 C 91.590 350.326,89.610 348.845,88.400 348.078 C 87.190 347.311,85.249 345.881,84.088 344.900 C 82.926 343.919,80.946 342.348,79.688 341.408 C 76.472 339.005,60.904 323.358,58.587 320.200 C 57.942 319.320,56.580 317.610,55.561 316.400 C 54.542 315.190,53.083 313.210,52.318 312.000 C 51.553 310.790,50.082 308.812,49.048 307.606 C 48.014 306.399,46.428 304.059,45.523 302.406 C 44.618 300.752,43.468 298.860,42.967 298.199 C 42.466 297.539,41.160 295.184,40.063 292.967 C 38.967 290.750,37.344 287.899,36.456 286.631 C 35.518 285.292,34.323 282.771,33.604 280.612 C 32.923 278.569,31.728 275.840,30.947 274.549 C 28.588 270.646,28.384 270.117,27.176 264.761 C 26.536 261.920,25.218 257.662,24.248 255.298 C 22.130 250.136,21.884 248.983,20.606 238.200 C 20.058 233.580,19.248 227.730,18.807 225.200 C 16.322 210.947,16.375 200.303,19.012 184.059 C 19.560 180.682,20.367 174.742,20.805 170.859 C 21.820 161.846,22.023 160.925,24.210 155.396 C 25.209 152.871,26.466 148.779,27.004 146.303 C 27.769 142.782,28.470 140.855,30.219 137.466 C 31.449 135.083,32.904 131.759,33.452 130.079 C 34.030 128.309,35.288 125.794,36.445 124.097 C 37.542 122.486,39.033 119.762,39.759 118.042 C 40.484 116.322,41.886 113.764,42.873 112.358 C 43.861 110.951,45.337 108.587,46.152 107.105 C 46.967 105.622,48.352 103.580,49.229 102.566 C 50.107 101.552,51.475 99.707,52.269 98.465 C 53.063 97.223,54.670 95.126,55.840 93.804 C 57.010 92.482,59.925 89.150,62.319 86.400 C 68.040 79.826,82.127 66.626,86.000 64.210 C 86.990 63.592,88.531 62.420,89.425 61.604 C 90.319 60.789,91.939 59.613,93.025 58.992 C 94.111 58.372,96.361 56.924,98.025 55.776 C 99.688 54.627,102.208 53.107,103.625 52.396 C 105.041 51.686,107.370 50.253,108.800 49.210 C 110.230 48.168,112.750 46.815,114.400 46.204 C 116.050 45.593,119.200 44.138,121.400 42.970 C 124.057 41.561,126.945 40.429,130.000 39.600 C 132.859 38.825,135.822 37.687,137.829 36.594 C 141.419 34.639,142.293 34.396,149.915 33.228 C 152.838 32.780,157.968 31.614,161.315 30.638 C 169.473 28.257,171.193 27.946,178.200 27.578 C 187.689 27.081,214.296 27.471,218.800 28.173 M188.318 49.764 C 180.531 52.544,178.030 57.645,178.006 70.800 C 177.990 78.981,176.468 81.856,169.866 86.176 C 159.101 93.220,156.187 100.020,160.368 108.336 C 162.635 112.846,163.447 113.422,170.600 115.600 C 172.140 116.069,174.390 117.034,175.600 117.744 C 176.810 118.454,178.880 119.454,180.200 119.966 C 183.495 121.244,185.003 122.892,185.586 125.852 C 188.450 140.406,196.442 148.138,205.808 145.415 C 210.355 144.093,212.754 141.778,220.187 131.542 C 223.209 127.380,223.563 127.259,233.508 126.975 C 245.739 126.625,249.363 125.117,252.464 119.089 C 255.113 113.938,253.535 105.854,248.735 99.994 C 243.703 93.850,242.693 90.630,244.212 85.570 C 247.905 73.267,247.507 63.979,243.125 60.229 C 237.613 55.511,233.151 54.986,225.980 58.213 C 221.926 60.038,216.328 61.014,213.139 60.452 C 210.403 59.970,210.326 59.932,207.085 57.443 C 199.016 51.248,192.094 48.416,188.318 49.764 M195.818 56.947 C 198.372 57.627,199.208 58.080,202.340 60.479 C 208.734 65.377,214.358 66.883,219.301 65.023 C 224.022 63.246,233.377 62.332,237.592 63.236 C 243.765 64.559,244.639 72.450,239.547 80.885 C 236.489 85.952,236.626 91.351,239.936 96.155 C 241.014 97.720,242.353 99.900,242.912 101.000 C 243.470 102.100,244.905 104.123,246.099 105.496 C 253.853 114.406,248.215 121.147,232.312 121.981 C 222.769 122.482,220.350 123.294,217.655 126.903 C 216.794 128.056,215.427 129.630,214.619 130.400 C 213.810 131.170,212.600 132.757,211.930 133.927 C 210.644 136.169,205.540 140.599,203.713 141.058 C 199.870 142.022,196.336 139.094,194.230 133.200 C 193.640 131.550,192.472 129.030,191.634 127.600 C 190.796 126.170,189.711 123.920,189.224 122.600 C 187.000 116.571,182.396 112.886,175.987 112.002 C 169.332 111.085,166.407 109.398,164.541 105.400 C 162.638 101.321,163.503 97.307,166.800 94.917 C 167.790 94.199,169.500 92.829,170.600 91.873 C 171.700 90.916,173.919 89.367,175.532 88.430 C 180.867 85.332,181.823 82.788,182.161 70.800 C 182.476 59.635,182.846 58.550,186.808 57.183 C 189.392 56.291,193.000 56.196,195.818 56.947 M74.200 174.012 C 67.383 176.639,66.409 179.886,66.401 200.000 C 66.398 207.782,66.226 214.010,65.991 214.855 C 65.511 216.585,60.875 221.179,57.800 222.974 C 56.700 223.617,54.677 225.000,53.305 226.049 C 51.932 227.098,49.699 228.607,48.341 229.403 C 45.482 231.078,38.115 237.863,37.128 239.729 C 33.000 247.532,37.339 256.353,46.800 259.397 C 48.010 259.786,50.350 260.733,52.000 261.500 C 56.319 263.510,57.450 263.861,62.514 264.768 C 69.893 266.089,70.919 266.731,74.253 272.119 C 77.365 277.146,77.857 278.384,79.008 284.069 C 82.323 300.446,91.876 310.634,100.324 306.800 C 105.167 304.602,108.370 301.322,114.534 292.248 C 115.598 290.681,117.066 288.770,117.797 288.000 C 118.527 287.230,119.939 285.250,120.934 283.600 C 124.791 277.201,124.787 277.202,141.550 277.192 C 160.260 277.181,160.581 277.110,166.113 271.755 C 171.577 266.465,172.004 261.124,167.419 255.400 C 166.714 254.520,165.639 252.876,165.030 251.746 C 164.421 250.616,163.202 248.820,162.321 247.754 C 161.440 246.687,159.908 244.552,158.916 243.007 C 157.925 241.463,156.225 239.170,155.139 237.912 C 150.152 232.130,150.227 222.523,155.338 212.480 C 159.334 204.626,160.118 193.456,157.004 188.738 C 154.486 184.924,147.958 183.256,140.775 184.591 C 132.018 186.219,129.982 186.790,126.279 188.651 C 119.912 191.851,111.898 192.650,108.726 190.400 C 106.371 188.729,102.509 185.904,99.885 183.932 C 98.518 182.905,96.140 181.196,94.600 180.135 C 93.060 179.074,90.754 177.353,89.475 176.311 C 85.628 173.177,78.969 172.175,74.200 174.012 M83.432 178.598 C 84.329 179.124,85.309 179.849,85.609 180.211 C 85.909 180.572,87.334 181.462,88.777 182.189 C 90.346 182.979,92.146 184.321,93.256 185.526 C 94.277 186.635,95.987 187.990,97.056 188.537 C 98.125 189.084,99.990 190.385,101.200 191.427 C 106.535 196.022,111.969 197.398,118.652 195.846 C 121.043 195.291,124.672 194.575,126.716 194.255 C 129.758 193.778,130.918 193.379,133.116 192.052 C 140.592 187.540,150.903 187.886,153.740 192.744 C 155.921 196.478,155.201 201.371,151.821 205.799 C 150.428 207.625,149.811 209.688,149.371 214.000 C 148.992 217.705,147.818 221.198,146.266 223.239 C 142.912 227.648,142.968 228.052,148.151 237.000 C 149.425 239.200,151.514 242.080,152.794 243.400 C 154.073 244.720,155.523 246.610,156.016 247.600 C 156.509 248.590,157.742 250.314,158.756 251.432 C 160.149 252.967,161.017 254.531,162.304 257.832 C 164.728 264.043,164.668 264.596,161.177 268.196 C 157.004 272.501,156.605 272.583,141.553 272.239 L 129.705 271.969 125.912 273.184 C 121.230 274.684,119.690 275.692,118.375 278.114 C 117.811 279.153,116.314 281.201,115.048 282.665 C 113.783 284.129,112.205 286.401,111.542 287.714 C 110.880 289.027,109.570 290.933,108.631 291.951 C 107.693 292.968,106.411 294.758,105.783 295.930 C 103.468 300.245,96.765 302.112,92.146 299.728 C 90.020 298.631,89.081 297.075,88.271 293.306 C 87.769 290.966,87.217 289.613,86.250 288.344 C 83.745 285.059,82.855 282.433,82.010 275.834 C 81.499 271.846,80.884 270.354,79.031 268.600 C 78.333 267.940,77.142 266.526,76.383 265.458 C 74.676 263.054,73.085 262.219,69.044 261.607 C 64.706 260.949,62.816 260.325,60.647 258.832 C 57.899 256.942,56.449 256.451,51.832 255.849 C 46.113 255.104,43.386 253.055,40.969 247.685 C 39.553 244.539,46.587 235.932,53.653 232.165 C 55.112 231.387,56.854 230.068,57.524 229.235 C 58.271 228.305,59.970 227.081,61.918 226.067 C 65.547 224.179,67.614 222.114,69.146 218.848 L 70.200 216.600 70.256 201.800 C 70.322 184.300,70.292 184.482,73.734 180.877 C 77.504 176.928,79.702 176.412,83.432 178.598 M259.710 217.563 C 257.860 218.039,256.694 218.901,254.948 221.082 C 254.104 222.137,252.732 223.794,251.899 224.765 C 249.361 227.724,249.058 229.468,249.017 241.400 C 248.986 250.195,248.880 251.985,248.331 253.000 C 247.405 254.708,243.084 258.725,239.800 260.930 C 232.136 266.077,227.941 270.663,225.758 276.283 C 224.761 278.849,226.194 283.133,229.511 287.503 C 231.276 289.829,241.522 294.536,247.469 295.752 C 253.397 296.964,254.351 297.432,256.345 300.106 C 258.695 303.257,259.154 304.397,260.391 310.160 C 263.787 325.978,272.978 332.608,284.098 327.261 C 287.383 325.681,287.732 325.390,289.809 322.489 C 294.143 316.437,295.815 314.010,296.880 312.225 C 299.584 307.693,303.576 306.372,314.403 306.426 C 323.446 306.471,325.890 306.096,330.000 304.033 C 338.379 299.827,338.838 299.552,339.254 298.484 C 339.943 296.715,339.319 290.943,338.186 288.600 C 336.253 284.606,332.421 278.538,330.143 275.867 C 328.861 274.363,327.360 272.377,326.806 271.452 C 326.253 270.527,325.185 268.891,324.433 267.816 C 322.592 265.184,322.639 263.649,324.710 258.800 C 325.674 256.541,326.683 253.215,327.196 250.600 C 327.671 248.180,328.317 245.312,328.630 244.227 C 332.112 232.174,321.295 222.198,309.800 226.860 C 307.820 227.663,304.400 228.714,302.200 229.196 C 300.000 229.677,297.056 230.415,295.658 230.836 C 291.036 232.225,286.844 231.075,281.966 227.078 C 279.390 224.967,271.138 219.409,268.736 218.167 C 267.275 217.411,261.739 217.041,259.710 217.563 M266.479 223.756 C 267.468 224.282,269.430 225.131,270.839 225.643 C 272.684 226.314,273.903 227.096,275.200 228.445 C 276.190 229.474,278.530 231.260,280.400 232.415 C 282.270 233.569,284.430 235.003,285.200 235.602 C 289.769 239.154,295.366 239.111,300.113 235.487 C 305.822 231.130,320.442 230.529,323.372 234.532 C 325.547 237.504,324.161 248.047,320.985 252.687 C 318.834 255.827,318.600 256.861,318.600 263.200 C 318.600 268.740,318.808 269.410,321.585 272.800 C 322.396 273.790,323.753 275.757,324.601 277.170 C 325.450 278.584,326.935 280.544,327.902 281.525 C 331.178 284.848,332.763 292.837,330.855 296.406 C 329.322 299.273,328.836 299.374,315.400 299.616 C 302.298 299.852,302.596 299.802,300.000 302.177 C 299.010 303.083,297.365 304.420,296.344 305.148 C 295.243 305.933,294.049 307.278,293.411 308.450 C 292.819 309.538,291.449 311.440,290.366 312.677 C 289.284 313.915,287.760 316.068,286.980 317.463 C 284.276 322.298,279.868 324.874,275.358 324.256 C 271.651 323.748,270.608 322.646,269.434 318.000 C 269.019 316.359,268.123 314.441,267.006 312.800 C 264.813 309.581,264.572 308.935,263.382 303.103 C 261.906 295.870,261.245 295.038,255.638 293.356 C 249.302 291.455,248.647 291.199,245.961 289.577 C 243.993 288.387,242.351 287.772,239.743 287.246 C 233.127 285.913,232.200 284.850,232.200 278.600 C 232.200 273.398,232.859 271.955,236.110 270.038 C 237.381 269.289,239.342 267.820,240.468 266.774 C 241.594 265.728,243.777 264.181,245.319 263.336 C 247.400 262.196,248.664 261.129,250.218 259.200 C 251.370 257.770,253.050 255.891,253.950 255.025 C 256.310 252.755,256.399 252.212,256.317 240.600 L 256.244 230.200 257.381 227.689 C 259.536 222.933,262.511 221.646,266.479 223.756 " stroke="none" fill="#04729f" fill-rule="evenodd"></path></g></svg>