<svg xmlns="http://www.w3.org/2000/svg" width="256" height="256" viewBox="0 0 2560 2560">
    <g fill="rgb(6,7,6)" stroke="rgb(6,7,6)" stroke-width="1" fill-rule="evenodd">
        <path d="M1127 2550 C1076 2544 1033 2535 1031 2530 C1030 2525 1016 2523 1001 2526 C970 2532 813 2485 787 2462 C777 2453 766 2449 763 2453 C755 2460 600 2379 600 2368 C600 2363 593 2360 586 2360 C529 2360 199 2030 199 1973 C199 1966 195 1960 190 1960 C184 1960 177 1948 174 1935 C170 1921 164 1910 160 1910 C145 1910 69 1721 44 1625 C12 1496 -2 1329 10 1200 C16 1143 24 1089 29 1080 C35 1070 36 1060 34 1057 C19 1042 106 794 131 778 C138 774 141 768 137 764 C130 757 206 625 252 565 C345 445 494 313 616 241 C753 160 950 90 1058 84 C1087 83 1114 79 1117 75 C1127 65 1343 69 1425 80 C1541 96 1664 134 1769 187 C1821 213 1867 236 1872 238 C1876 240 1915 207 1959 165 C2002 124 2044 89 2051 88 C2059 88 2077 86 2093 84 C2130 80 2168 95 2202 127 C2230 153 2230 153 2230 124 C2230 108 2238 85 2247 73 C2321 -20 2480 -8 2530 95 C2541 119 2552 151 2554 166 C2561 229 2486 336 2443 325 C2416 318 2417 336 2447 374 C2460 390 2470 407 2471 413 C2472 429 2472 481 2471 503 C2470 513 2436 556 2395 598 C2320 675 2320 675 2333 710 C2339 729 2353 756 2362 770 C2390 811 2430 917 2457 1020 C2487 1138 2499 1358 2480 1477 C2462 1589 2429 1719 2414 1734 C2406 1741 2403 1750 2406 1753 C2415 1761 2315 1960 2287 1990 C2275 2003 2266 2017 2267 2021 C2268 2025 2249 2049 2225 2074 C2200 2099 2183 2120 2187 2120 C2191 2120 2163 2151 2125 2190 C2086 2228 2050 2260 2045 2260 C2039 2260 2029 2268 2023 2277 C2009 2300 1877 2389 1835 2404 C1818 2410 1789 2425 1770 2437 C1750 2450 1719 2464 1700 2470 C1680 2476 1649 2488 1631 2496 C1612 2505 1580 2512 1559 2513 C1539 2514 1523 2518 1526 2521 C1530 2529 1500 2534 1357 2550 C1249 2562 1241 2562 1127 2550 M2000 430 L2047 475C2073 499 2095 520 2096 520 C2097 520 2101 524 2104 530 L2110 540L2110 540 L2113 540C2115 540 2125 550 2136 562 C2147 574 2181 623 2211 670 C2242 716 2282 789 2302 831 C2322 873 2347 938 2358 976 C2369 1014 2383 1072 2389 1105 C2395 1138 2403 1210 2406 1265 C2410 1336 2407 1396 2395 1475 C2385 1535 2364 1627 2347 1680 C2331 1732 2306 1797 2292 1825 C2278 1852 2243 1912 2213 1957 C2183 2002 2132 2066 2099 2099 C2066 2132 2037 2160 2034 2160 L2030 2160L2030 2160 L2027 2160C2026 2160 2002 2181 1975 2206 C1947 2231 1900 2268 1870 2289 C1839 2310 1790 2339 1760 2355 C1729 2370 1668 2395 1623 2410 C1579 2426 1498 2446 1444 2455 C1369 2468 1311 2471 1200 2467 C1090 2463 1031 2455 958 2436 C905 2423 829 2398 790 2381 C750 2364 688 2333 651 2310 C614 2288 553 2245 515 2215 C476 2184 413 2123 374 2079 C334 2034 281 1962 255 1918 C228 1874 192 1801 173 1755 C155 1710 130 1633 118 1584 C99 1508 95 1467 95 1310 C95 1147 98 1114 118 1035 C131 987 157 909 175 864 C194 818 227 751 249 714 C272 677 312 619 339 586 C365 552 414 500 446 469 C478 439 534 393 570 368 C605 342 668 304 710 282 C751 260 818 230 860 216 C901 202 971 184 1015 175 C1059 166 1140 156 1195 153 C1263 149 1330 152 1407 164 C1469 173 1560 193 1609 209 C1658 225 1724 252 1756 268 C1788 285 1856 328 1907 364 L2000 430M2070 1930 L2070 1925C2070 1922 2063 1920 2054 1920 C2046 1920 2037 1913 2034 1905 L2030 1890L2030 1890 L2065 1890C2090 1890 2100 1885 2100 1873 C2100 1864 2077 1827 2050 1790 C2022 1752 2000 1711 2000 1698 C2000 1685 2011 1639 2026 1596 C2041 1549 2048 1514 2043 1509 C2037 1503 1999 1511 1946 1529 C1876 1553 1853 1557 1832 1548 C1817 1543 1787 1524 1765 1505 C1743 1487 1714 1467 1702 1461 C1689 1454 1675 1451 1669 1455 C1664 1458 1660 1503 1660 1555 C1660 1634 1656 1653 1641 1668 C1630 1679 1594 1706 1560 1729 C1526 1752 1500 1776 1502 1783 C1504 1789 1545 1808 1592 1825 C1640 1841 1684 1860 1689 1865 C1695 1871 1712 1914 1727 1960 C1744 2012 1760 2045 1770 2047 C1778 2048 1800 2027 1820 1997 C1839 1969 1865 1933 1878 1917 C1895 1897 1910 1890 1935 1890 L1970 1890L1970 1890 L1960 1910L1950 1930L1950 1930 L1931 1935C1921 1938 1898 1961 1879 1987 C1861 2013 1835 2047 1821 2062 C1807 2077 1786 2090 1775 2090 C1763 2090 1745 2084 1735 2076 C1725 2069 1705 2025 1690 1979 C1663 1895 1663 1895 1575 1865 C1517 1845 1482 1827 1472 1812 C1463 1799 1460 1780 1463 1766 C1467 1752 1499 1720 1542 1688 C1615 1634 1615 1634 1620 1536 C1624 1454 1628 1436 1644 1424 C1655 1416 1672 1410 1682 1410 C1692 1410 1711 1415 1722 1421 C1734 1427 1766 1450 1793 1471 C1819 1492 1849 1510 1859 1510 C1868 1510 1908 1499 1948 1485 C2006 1465 2026 1463 2049 1471 C2069 1478 2080 1490 2084 1508 C2088 1525 2080 1567 2064 1619 C2038 1701 2038 1701 2066 1740 C2082 1762 2105 1794 2117 1811 C2129 1828 2140 1857 2140 1876 C2140 1898 2133 1912 2120 1919 C2110 1925 2094 1930 2085 1930 L2070 1930M565 1917 C558 1905 539 1854 525 1805 C510 1755 494 1711 489 1706 C485 1701 432 1680 373 1661 C281 1630 262 1620 251 1596 C233 1558 249 1535 348 1466 C392 1435 431 1405 435 1399 C439 1393 442 1337 443 1275 C445 1149 453 1130 504 1130 C527 1129 559 1147 625 1195 C674 1230 719 1258 724 1256 C730 1254 781 1237 837 1219 C939 1185 939 1185 967 1206 C982 1217 996 1235 997 1246 C999 1256 984 1312 964 1369 C924 1485 916 1455 1024 1608 C1049 1643 1070 1680 1070 1690 C1070 1700 1058 1717 1043 1729 C1020 1747 1003 1750 903 1750 C789 1750 789 1750 742 1816 C657 1935 653 1940 615 1940 C589 1940 576 1933 565 1917 M596 1882 C588 1867 572 1821 560 1780 C527 1667 525 1666 395 1625 C331 1605 280 1585 280 1580 C279 1568 322 1534 403 1480 C446 1450 472 1426 477 1410 C480 1396 483 1335 484 1275 C484 1205 488 1165 496 1163 C502 1160 549 1190 601 1229 C652 1268 704 1299 715 1299 C726 1300 781 1283 838 1263 C906 1239 944 1230 951 1237 C957 1243 949 1284 924 1358 C904 1423 891 1478 895 1490 C898 1501 930 1548 965 1595 C1001 1642 1030 1685 1030 1690 C1030 1702 1012 1703 883 1704 C764 1705 763 1705 688 1817 C626 1909 614 1918 596 1882 M1271 910 C1245 898 1238 886 1215 815 C1195 755 1195 755 1130 731 C996 684 995 643 1123 547 C1159 519 1160 518 1160 446 C1160 388 1163 369 1178 356 C1207 330 1242 337 1304 381 C1361 422 1361 422 1431 398 C1495 377 1502 376 1527 390 C1563 410 1566 445 1541 520 C1521 579 1521 579 1545 612 C1573 649 1609 719 1609 735 C1610 765 1568 783 1490 787 C1412 792 1412 792 1371 851 C1328 911 1303 926 1271 910 M1270 855 C1265 842 1256 812 1249 788 C1233 727 1216 712 1138 688 C1095 675 1070 662 1070 653 C1070 645 1091 625 1116 607 C1199 550 1200 548 1200 460 C1200 363 1205 361 1287 420 C1351 465 1365 467 1445 439 C1476 429 1506 420 1511 420 C1524 420 1521 446 1498 521 C1477 591 1477 591 1519 651 C1573 728 1570 746 1505 741 C1414 735 1394 744 1350 810 C1303 879 1284 890 1270 855 M2236 562 C2199 503 2088 388 2021 340 C1987 315 1960 292 1960 289 C1960 278 2088 160 2100 160 C2116 159 2388 429 2396 453 C2400 467 2387 487 2351 526 C2276 604 2265 608 2236 562 M2341 251 C2326 240 2307 218 2300 201 C2272 134 2337 69 2410 90 C2438 98 2480 138 2471 148 C2469 151 2474 156 2481 160 C2499 172 2462 237 2427 255 C2391 274 2375 273 2341 251"/>
    </g>
    <g fill="rgb(1,12,22)" stroke="rgb(1,12,22)" stroke-width="1" fill-rule="evenodd">
        <path d="M1950 1930 L1960 1910L1970 1890L1970 1890 L1985 1890C1993 1890 2002 1890 2005 1890 C2007 1890 2014 1890 2020 1890 L2030 1890L2030 1890 L2034 1905C2037 1913 2046 1920 2054 1920 C2063 1920 2070 1922 2070 1925 L2070 1930L2070 1930 L2070 1935C2070 1937 2047 1940 2020 1940 C1992 1940 1970 1937 1970 1935 C1970 1932 1965 1930 1960 1930 L1950 1930"/>
    </g>
    <g fill="rgb(1,130,190)" stroke="rgb(1,130,190)" stroke-width="1" fill-rule="evenodd">
        <path d="M2030 2160 L2030 2147C2030 2140 2042 2118 2058 2099 C2074 2080 2104 2035 2126 2000 C2148 1964 2179 1908 2196 1875 C2213 1842 2239 1781 2254 1741 C2268 1700 2284 1648 2289 1626 C2294 1603 2306 1535 2315 1475 C2327 1395 2330 1333 2326 1253 C2322 1191 2310 1101 2299 1053 C2288 1004 2265 927 2249 881 C2233 836 2206 771 2189 737 C2172 703 2143 654 2124 628 C2105 601 2090 575 2090 569 L2090 560L2090 560 L2090 555C2090 552 2091 550 2093 550 C2095 550 2099 547 2103 545 L2110 540L2110 540 L2113 540C2115 540 2125 550 2136 562 C2147 574 2181 623 2211 670 C2242 716 2282 789 2302 831 C2322 873 2347 938 2358 976 C2369 1014 2383 1072 2389 1105 C2395 1138 2403 1210 2406 1265 C2410 1336 2407 1396 2395 1475 C2385 1535 2364 1627 2347 1680 C2331 1732 2306 1797 2292 1825 C2278 1852 2243 1912 2213 1957 C2183 2002 2132 2066 2099 2099 C2066 2132 2037 2160 2034 2160 L2030 2160"/>
    </g>
    <g fill="rgb(1,156,216)" stroke="rgb(1,156,216)" stroke-width="1" fill-rule="evenodd">
        <path d="M2000 430 L2047 475C2073 499 2095 520 2096 520 C2097 520 2101 524 2104 530 L2110 540L2110 540 L2103 545C2099 547 2095 550 2093 550 C2091 550 2090 552 2090 555 L2090 560L2090 560 L2084 560C2082 560 2066 545 2050 527 C2033 509 2020 489 2020 483 C2020 477 2013 466 2005 460 C1996 453 1990 443 1990 438 C1990 433 1992 430 1995 430 L2000 430"/>
    </g>
    <g fill="rgb(2,176,237)" stroke="rgb(2,176,237)" stroke-width="1" fill-rule="evenodd">
        <path d="M2000 430 L1995 430C1992 430 1990 433 1990 438 C1990 443 1996 453 2005 460 C2013 466 2020 477 2020 483 C2020 489 2033 509 2050 527 C2066 545 2082 560 2084 560 L2090 560L2090 560 L2090 569C2090 575 2105 601 2124 628 C2143 654 2172 703 2189 737 C2206 771 2233 836 2249 881 C2265 927 2288 1004 2299 1053 C2310 1101 2322 1191 2326 1253 C2330 1333 2327 1395 2315 1475 C2306 1535 2294 1603 2289 1626 C2284 1648 2268 1700 2254 1741 C2239 1781 2213 1842 2196 1875 C2179 1908 2148 1964 2126 2000 C2104 2035 2074 2080 2058 2099 C2042 2118 2030 2140 2030 2147 L2030 2160L2030 2160 L2027 2160C2026 2160 2002 2181 1975 2206 C1947 2231 1900 2268 1870 2289 C1839 2310 1790 2339 1760 2355 C1729 2370 1668 2395 1623 2410 C1579 2426 1498 2446 1444 2455 C1369 2468 1311 2471 1200 2467 C1090 2463 1031 2455 958 2436 C905 2423 829 2398 790 2381 C750 2364 688 2333 651 2310 C614 2288 553 2245 515 2215 C476 2184 413 2123 374 2079 C334 2034 281 1962 255 1918 C228 1874 192 1801 173 1755 C155 1710 130 1633 118 1584 C99 1508 95 1467 95 1310 C95 1147 98 1114 118 1035 C131 987 157 909 175 864 C194 818 227 751 249 714 C272 677 312 619 339 586 C365 552 414 500 446 469 C478 439 534 393 570 368 C605 342 668 304 710 282 C751 260 818 230 860 216 C901 202 971 184 1015 175 C1059 166 1140 156 1195 153 C1263 149 1330 152 1407 164 C1469 173 1560 193 1609 209 C1658 225 1724 252 1756 268 C1788 285 1856 328 1907 364 L2000 430M2070 1930 L2070 1935C2070 1937 2047 1940 2020 1940 C1992 1940 1970 1937 1970 1935 C1970 1932 1965 1930 1960 1930 L1950 1930L1950 1930 L1931 1935C1921 1938 1898 1961 1879 1987 C1861 2013 1835 2047 1821 2062 C1807 2077 1786 2090 1775 2090 C1763 2090 1745 2084 1735 2076 C1725 2069 1705 2025 1690 1979 C1663 1895 1663 1895 1575 1865 C1517 1845 1482 1827 1472 1812 C1463 1799 1460 1780 1463 1766 C1467 1752 1499 1720 1542 1688 C1615 1634 1615 1634 1620 1536 C1624 1454 1628 1436 1644 1424 C1655 1416 1672 1410 1682 1410 C1692 1410 1711 1415 1722 1421 C1734 1427 1766 1450 1793 1471 C1819 1492 1849 1510 1859 1510 C1868 1510 1908 1499 1948 1485 C2006 1465 2026 1463 2049 1471 C2069 1478 2080 1490 2084 1508 C2088 1525 2080 1567 2064 1619 C2038 1701 2038 1701 2066 1740 C2082 1762 2105 1794 2117 1811 C2129 1828 2140 1857 2140 1876 C2140 1898 2133 1912 2120 1919 C2110 1925 2094 1930 2085 1930 L2070 1930M565 1917 C558 1905 539 1854 525 1805 C510 1755 494 1711 489 1706 C485 1701 432 1680 373 1661 C281 1630 262 1620 251 1596 C233 1558 249 1535 348 1466 C392 1435 431 1405 435 1399 C439 1393 442 1337 443 1275 C445 1149 453 1130 504 1130 C527 1129 559 1147 625 1195 C674 1230 719 1258 724 1256 C730 1254 781 1237 837 1219 C939 1185 939 1185 967 1206 C982 1217 996 1235 997 1246 C999 1256 984 1312 964 1369 C924 1485 916 1455 1024 1608 C1049 1643 1070 1680 1070 1690 C1070 1700 1058 1717 1043 1729 C1020 1747 1003 1750 903 1750 C789 1750 789 1750 742 1816 C657 1935 653 1940 615 1940 C589 1940 576 1933 565 1917 M1271 910 C1245 898 1238 886 1215 815 C1195 755 1195 755 1130 731 C996 684 995 643 1123 547 C1159 519 1160 518 1160 446 C1160 388 1163 369 1178 356 C1207 330 1242 337 1304 381 C1361 422 1361 422 1431 398 C1495 377 1502 376 1527 390 C1563 410 1566 445 1541 520 C1521 579 1521 579 1545 612 C1573 649 1609 719 1609 735 C1610 765 1568 783 1490 787 C1412 792 1412 792 1371 851 C1328 911 1303 926 1271 910"/>
    </g>
    <g fill="rgb(252,198,0)" stroke="rgb(252,198,0)" stroke-width="1" fill-rule="evenodd">
        <path d="M2236 562 C2199 503 2088 388 2021 340 C1987 315 1960 292 1960 289 C1960 278 2088 160 2100 160 C2116 159 2388 429 2396 453 C2400 467 2387 487 2351 526 C2276 604 2265 608 2236 562"/>
    </g>
    <g fill="rgb(250,229,74)" stroke="rgb(250,229,74)" stroke-width="1" fill-rule="evenodd">
        <path d="M2030 1890 L2020 1890C2014 1890 2007 1890 2005 1890 C2002 1890 1993 1890 1985 1890 L1970 1890L1970 1890 L1935 1890C1910 1890 1895 1897 1878 1917 C1865 1933 1839 1969 1820 1997 C1800 2027 1778 2048 1770 2047 C1760 2045 1744 2012 1727 1960 C1712 1914 1695 1871 1689 1865 C1684 1860 1640 1841 1592 1825 C1545 1808 1504 1789 1502 1783 C1500 1776 1526 1752 1560 1729 C1594 1706 1630 1679 1641 1668 C1656 1653 1660 1634 1660 1555 C1660 1503 1664 1458 1669 1455 C1675 1451 1689 1454 1702 1461 C1714 1467 1743 1487 1765 1505 C1787 1524 1817 1543 1832 1548 C1853 1557 1876 1553 1946 1529 C1999 1511 2037 1503 2043 1509 C2048 1514 2041 1549 2026 1596 C2011 1639 2000 1685 2000 1698 C2000 1711 2022 1752 2050 1790 C2077 1827 2100 1864 2100 1873 C2100 1885 2090 1890 2065 1890 L2030 1890"/>
        <path d="M596 1882 C588 1867 572 1821 560 1780 C527 1667 525 1666 395 1625 C331 1605 280 1585 280 1580 C279 1568 322 1534 403 1480 C446 1450 472 1426 477 1410 C480 1396 483 1335 484 1275 C484 1205 488 1165 496 1163 C502 1160 549 1190 601 1229 C652 1268 704 1299 715 1299 C726 1300 781 1283 838 1263 C906 1239 944 1230 951 1237 C957 1243 949 1284 924 1358 C904 1423 891 1478 895 1490 C898 1501 930 1548 965 1595 C1001 1642 1030 1685 1030 1690 C1030 1702 1012 1703 883 1704 C764 1705 763 1705 688 1817 C626 1909 614 1918 596 1882"/>
        <path d="M1270 855 C1265 842 1256 812 1249 788 C1233 727 1216 712 1138 688 C1095 675 1070 662 1070 653 C1070 645 1091 625 1116 607 C1199 550 1200 548 1200 460 C1200 363 1205 361 1287 420 C1351 465 1365 467 1445 439 C1476 429 1506 420 1511 420 C1524 420 1521 446 1498 521 C1477 591 1477 591 1519 651 C1573 728 1570 746 1505 741 C1414 735 1394 744 1350 810 C1303 879 1284 890 1270 855"/>
    </g>
</svg>
